<?xml version="1.0" encoding="UTF-8" standalone="no"?>
<svg
   width="565"
   height="424"
   enable-background="new 0 0 565 424"
   version="1.1"
   xml:space="preserve"
   sodipodi:docname="nemo-ii-itinerary-A.svg"
   inkscape:version="1.3.2 (091e20e, 2023-11-25, custom)"
   inkscape:export-filename="nemo-ii-itinerary-A.png"
   inkscape:export-xdpi="96"
   inkscape:export-ydpi="96"
   xmlns:inkscape="http://www.inkscape.org/namespaces/inkscape"
   xmlns:sodipodi="http://sodipodi.sourceforge.net/DTD/sodipodi-0.dtd"
   xmlns="http://www.w3.org/2000/svg"
   xmlns:svg="http://www.w3.org/2000/svg">

 <style type="text/css">
    .bg0{fill:#215793;stroke:#FFFFFF;stroke-width:0.5;stroke-miterlimit:10}
	.bg1{fill:#1d3259;stroke:#FFFFFF;stroke-width:0.5;stroke-miterlimit:10}
	.bg2{fill:#ffffff;stroke:#e45426;stroke-width:0.911623}
    .bg3{fill:#1d3259;stroke:#e45426;stroke-width:0.759686}
	.ff1{font-family:'Verdana'}
	.fw1{font-weight:600}
	.fs50{font-size:5px}	
	.fs60{font-size:6px}	
	.fs65{font-size:6.5px}	
	.fs70{font-size:7px}	
	.fs75{font-size:7.5px}	
	.fs80{font-size:8px}
	.fs90{font-size:9px}
	.fs120{font-size:12px}	
	.fs140{font-size:14px}
	.fs160{font-size:16px}
	.fs200{font-size:20px}
	.blue{fill:#1d3259}
	.red{fill:red}
	.white{fill:#ffffff}
	.gray{fill:#6d6e72}
	.path1{fill:none;stroke:#00A7CE;stroke-miterlimit:10;stroke-dasharray: 2000;
		stroke-dashoffset:0;
		-webkit-animation: dash 15s linear forwards infinite;
		-o-animation:dash 15s linear forwards infinite;
		-moz-animation: dash 10s linear forwards infinite;
		animation: dash 15s linear forwards infinite;
	}
	@-webkit-keyframes dash{
		from{
			stroke-dashoffset:2000;
		}
		to{
			stroke-dashoffset:0;
		}
	}
</style>
 <g transform="translate(0,-22)">
  <title>Nemo II North Itinerary A</title>
  <g>
   <path d="M 21.017005,54.370818 H 235.45658 V 23 H 21.017005 Z" style="fill:#73a2d3" />
   <path d="M 7.9550945,54.370818 H 218.06229 V 23 H 7.9550945 Z" style="fill:#467aaf" />
   <path d="M 0.17641548,54.370818 H 197.69111 V 23 H 0.17641548 Z" style="fill:#215793" />
   <text transform="matrix(0.7534559,0,0,0.75310835,5.0216645,45.392933)" style="font-weight:500;font-size:25px;font-family:'Verdana';fill:#ffffff">NORTH ITINERARY</text>
   <text transform="matrix(0.7534559,0,0,0.75310835,5.7115521,444.91678)" style="font-style:italic;font-size:26px;font-weight:500;font-family:'Verdana';fill:#c5c5c7">PACIFIC OCEAN</text>
   <path d="M 176.36765,448.99124 H 529.54332 V 434.74809 H 176.36765 Z" style="fill:#73a2d3"/>
   <path d="M 284.38611,448.99124 H 551.83582 V 434.74809 H 284.38611 Z" style="fill:#467aaf" />
   <path d="M 415.15365,448.99124 H 565.11247 V 434.74809 H 415.15365 Z" style="fill:#215793" />
   <polygon class="bg0" points="72.4,163.7 65.8,154.1 79.4,147.6 87.4,134.5 101.1,131.4 113.4,121.8 120,126.6 127.1,143.7    140.8,156.8 143.9,163.7 143.9,183 146.1,194.8 158.9,206.6 161.5,208.7 158.9,211.8 175.2,220.5 190.6,237.1 190.6,256.4    184.5,262.5 190.6,262.5 188.9,266.8 193.3,271.7 201.2,269 211.4,283.9 219.3,293.5 223.7,295.7 220.2,302.7 214,303.5    210.1,318.8 210.9,327.6 201.7,328.9 199.5,334.1 191.1,337.6 181.8,335 177,340.7 146.5,352.5 138.1,352.5 135.5,349 123.1,346.8    107.2,347.7 95.3,342.4 93.1,333.2 85.6,331.1 81.6,325.4 86.1,314.5 116.9,288.7 118.3,283.4 131.9,283.9 137.2,279.5    147.4,282.1 165,272.5 165.5,265.1 146.1,249.8 136.8,241.1 136.8,229.7 122.2,219.2 114.7,215.7 109,203.9 106.4,203.5    104.6,193.5 107.2,191.3 101.9,182.5 102.8,163.7 97.5,156.3 88.3,156.3 81.6,161.1 76.8,161.1  "/>
   <polygon class="bg0" points="62.4,246.6 71.7,246.6 80.1,250.1 96.8,248.4 104.3,241.4 103,236.2 106.1,229.2 106.1,220.9    100.4,211.3 91.1,204.3 84,204.3 80.5,208.6 74.3,209.5 68.1,211.7 55.8,211.3 51.4,212.6 51.4,217.8 54,221.3 54,231.8  "/>
   <polygon class="bg0" points="212.7,216.2 218.4,217 221.1,214.9 228.2,220.1 233.4,221.4 240.1,221.4 244.9,219.7 252,223.6    257.3,225.8 262.6,222.3 263.9,216.2 267.4,214.9 268.7,212.2 264.3,208.3 262.1,199.6 249.3,191.3 242.3,189.1 239.6,189.1    235.7,185.6 230.8,185.6 227.3,180.8 218.4,180.8 212.7,186.9 214,192.6 209.2,198.7 205.6,199.1 205.6,204.8 211.4,205.7    212.3,210.1  "/>
   <polygon class="bg0" points="423.2,403.5 428.1,400 437.8,398.7 443.9,402.6 446.6,407 444.8,410.9 439.5,409.6 435.6,410.9    432,408.3 426.3,407  "/>
   <path class="bg0" d="m271.4,286.5c0,0 11,4.4 11.9,4.8c0.9,0.4 4.9,3.9 4.9,3.9l7.5,3.9l9.7,0.9l4.9,-2.2l4.4,0.9l0,-4.4l11,0.9l4,-2.2l1.3,-6.6l4,0l4.4,-7l-2.2,-3.5l2.2,-4.8l0,-4.4l1.8,-5.2l-11.9,-7.9l-3.5,-8.3l-14.1,1.7l-8.4,0l1.3,3.5l-11.5,-1.7l-14.6,4.4l-8.4,7.9l-1.3,11.4l2.6,14z"/>
   <polygon class="bg0" points="446.1,328 464.7,335.9 472.6,331.9 483.2,330.2 490.3,328 495.6,317.1 498.2,309.2 505.7,307.9    517.2,294.8 520.3,290.4 516.3,284.8 512.8,286.9 502.6,284.8 497.3,283 496,287.4 481.5,293.9 475.7,305.7 472.2,309.2    466.4,309.2 461.6,307.9 462,312.7 459.4,315.3 451.4,320.6 446.1,324.1  "/>
   <polygon class="bg0" points="289.5,401.8 297.9,397 301,391.7 304.5,389.1 305.4,383 293.5,376.9 290.4,374.2 285.5,377.7    281.1,376 278.9,384.7 276.3,390 274.9,393.9 278,397 282.4,400  "/>
   <polygon class="bg0" points="360.6,95.3 361.5,93.4 364.7,93.4 365,96.3 363.3,96.9 365,99 367.4,97.1 369,93.4 368.5,88.6    363.6,85.9 360.9,87.5 357.7,87 357.1,93.4 357.7,95  "/>
   <polygon class="bg0" points="237.8,236.6 240,234.9 240.5,232.2 238.9,230.6 237.2,229.5 236.1,229.5 236.1,231.7 235,232.8    234.5,234.9 235.6,236.6  "/>
   <polygon class="bg0" points="356.1,310.5 359.2,310.5 363.2,312.7 365.8,312.7 367.6,312.7 368.5,310.5 368,309.2 368.5,307.9    366.3,305.7 357.9,305.3 356.1,305.3 356.6,306.6 358.3,307 357.4,308.8 355.7,308.8  "/>
   <polyline class="bg0" points="317.6,239.9 322.9,239.9 326.5,237.1 320.8,225.4 317.6,227.4 319.2,233.4 317.6,236.2 317.6,239.1     "/>
   <path class="bg0" d="m243.9,263.4c-0.6,0 -4.1,2.3 -4.1,2.3l0,4l1.2,2.3l2.9,0.6l1.2,2.3l2.9,-1.1l2.9,-1.1l0.6,-3.4l-2.9,-3.4l-2.3,-2.3l-2.4,0l0,-0.2z"/>
   <path class="bg0" d="m269.6,94.3l6.2,2.2l4,4.4l2.6,0.4c1.63,-0.57 3.27,-1.13 4.9,-1.7l5.7,-1.7l3.1,-3.5c0,0 0.9,-3.5 0.9,-3.1s-7.5,-7 -7.5,-7l-1.8,-0.4l-1.8,-3.1l-8.4,-0.9l-6.2,3.5l-2.6,3.5l0.9,7.4z"/>
   <path class="bg0" d="m 350.96858,258.49387 c 0.046,-0.60276 -1.39314,-0.20042 -2.3764,-0.46488 -0.98401,-0.26522 -1.72391,1.36903 -1.57246,1.65911 0.15069,0.29083 1.01641,1.14902 1.79247,1.08045 0.7738,-0.0693 1.00436,0.0256 1.22587,-0.19137 0.40762,-0.39934 0.90641,-1.76912 0.93052,-2.08331"/>  
   <path class="bg0" transform="matrix(0.7534559,0,0,-0.7534559,464.21115,294.12444)" d="m 0,0 c -0.878,-0.303 0.567,-2.088 0.794,-3.638 0.227,-1.549 2.984,-1.594 3.303,-1.205 0.318,0.391 0.999,2.139 0.429,3.188 -0.57,1.051 -0.577,1.433 -1.019,1.614 C 2.695,0.291 0.457,0.159 0,0"/>
   <path class="bg0" transform="matrix(0.7534559,0,0,-0.7534559,440.66401,396.65393)" d="M 0,0 C -0.191,-0.934 2.137,-0.588 3.622,-1.197 5.107,-1.807 6.586,0.601 6.409,1.085 6.231,1.569 5.044,3.082 3.821,3.13 2.597,3.174 2.255,3.367 1.867,3.07 1.15,2.527 0.101,0.485 0,0"/>  

   <g><text class="ff1 fs140 gray" transform="matrix(1.0102 0 0 1 40 263)">Fernandina</text></g>
   <g><text class="ff1 fs140 gray" transform="matrix(1.0102 0 0 1 449.7889 412.3494)">Espanola</text></g>
   <g><text class="ff1 fs140 gray" transform="matrix(1.0102 0 0 1 256.4842 413.2605)">Floreana</text></g>
   <g><text class="ff1 fs200 gray" transform="matrix(1.0102 0 0 1 454.2879 254.0603)">San<tspan class="ff1 fs200 gray" x="-25" y="20">Cristobal</tspan></text></g>
   <g><text class="ff1 fs200 gray" transform="matrix(1.0102 0 0 1 105.0077  385.0115)" >Isabela</text></g>
   <g><text class="ff1 fs140 gray" transform="matrix(1.0102 0 0 1 345.1063 82.325)">Genovesa</text></g>
   <g><text class="ff1 fs90 gray" transform="matrix(1.0102 0 0 1 319.1063 100.325)">Darwin<tspan class="ff1 fs90 gray" x="0" y="11">Bay</tspan></text></g>
   <g><text class="ff1 fs90 gray" transform="matrix(1.0102 0 0 1 368.1063 105.325)">El Barranco</text></g>
   <g><text class="ff1 fs80 gray" transform="matrix(1.0102 0 0 1 256 191)">Sullivan Bay</text></g>
   <g><text class="ff1 fs140 gray" transform="matrix(1.0102 0 0 1 197 160)">Santiago</text></g>      
   <g><text class="ff1 fs80 gray" transform="matrix(1.0102 0 0 1 195 172)">Buccaneer Cove</text></g>
   <g><text class="ff1 fs80 gray" transform="matrix(1.0102 0 0 1 165 193)">Espumilla <tspan class="ff1 fs80 gray" x="6" y="9">Beach</tspan></text></g>         
   <g><text class="ff1 fs60 white" transform="matrix(1.0102 0 0 1 217 199)">Salt Mines</text></g>      
   <g><text class="ff1 fs60 white" transform="matrix(1.0102 0 0 1 214 211)">Egas Port</text></g>   
   <g><text class="ff1 fs80 blue" transform="matrix(1.0102 0 0 1 336.1063 236.325)">Baltra</text></g>	
   <g><text class="ff1 fs120 gray" transform="matrix(1.0102 0 0 1 198.000 246.000)">Rabida</text></g>
   <g><text class="ff1 fs140 gray" transform="matrix(1.0102 0 0 1 342.000 280.000)">Santa<tspan class="ff1 fs140 gray" x="4" y="12">Cruz</tspan></text></g>
   <g><text class="ff1 fs90 white" transform="matrix(1.0102 0 0 1 136.1063 292.325)">Elizabeth Bay</text></g>
   <g><text class="ff1 fs90 gray" transform="matrix(1.0102 0 0 1 16.00 202.325)">Espinoza Point</text></g>
   <g><text class="ff1 fs90 white" transform="matrix(1.0102 0 0 1 117.080305 200.4447797)">Tagus<tspan class="ff1 fs90 white" x="5.1999998" y="9.5">Cove</tspan></text></g>   
   <g><text class="ff1 fs90 white" transform="matrix(1.0102 0 0 1 145.080305 231.4447797)">Urbina<tspan class="ff1 fs90 white" x="5.1999998" y="9.5">Bay</tspan></text></g>
   <g><text class="ff1 fs60 white" transform="matrix(1.0102 0 0 1 308.080305 254.4447797)">Black<tspan class="ff1 fs60 white" x="0" y="8">Turtle</tspan></text></g>
   <g><text class="ff1 fs60 white" transform="matrix(1.0102 0 0 1 290.1063 273.325)">Highlands</text></g>   
   <g><text class="ff1 fs60 white" transform="matrix(1.0102 0 0 1 288.080305 283.4447797)">Charles Darwin<tspan class="ff1 fs60 white" x="0" y="7">Station</tspan></text></g>
 
   <g transform="translate(-159.71526,74.603839)">
    <g transform="translate(1.5761374,16.286754)">
     <path
     class="path1"
     d="m 478.94588,146.42927 c -17.43459,-2.36917 -33.96621,16.59106 -33.84217,14.54168 0,0 17.80938,-16.09998 25.40559,-30.06821 6.78182,-12.47069 43.42625,-82.526034 48.04264,-122.8534555 0,0 -101.89259,83.6195985 -111.01578,90.5898615 0,0 32.59535,7.948484 29.23992,27.242734 -1.75685,10.10219 -32.0832,17.81161 -35.94293,19.23688 0,0 2.78697,17.95591 17.83835,46.06795 0,0 6.89029,15.55692 25.30723,19.28408 4.76068,0.96345 12.8022,2.84815 18.95712,1.70287 4.91288,-0.91416 11.73665,-5.64445 17.89024,-7.72451 0,0 -17.40261,13.27459 -41.30813,22.47128 -50.15134,19.29372 -130.56509,42.82117 -124.87661,40.18009 -74.12146,8.09533 -90.33564,-37.15982 -75.65465,-50.40175 12.9639,-11.69315 49.4573,-41.42167 77.05406,-33.01837 0,0 -29.67693,-27.80292 -21.73233,-43.92358 0,0 -8.49812,-0.59841 -15.32844,-5.00982 -8.0908,-5.2255 -2.6817,-9.01102 -5.85899,-13.4978 -4.13228,-5.83536 -17.80944,-7.86719 -22.75828,-12.08338 -2.83658,-2.41664 -13.17348,-11.615017 -22.41269,-20.851024 -4.7436,-4.741956 -11.89596,-23.589377 -7.38996,-37.236039 1.5537,-4.70549 13.3637,-19.355652 36.21706,-23.627952 11.32849,-2.117794 28.92582,0.435078 39.56467,8.802687 l 69.33534,62.727213 12.28133,-13.085528 c 7.15321,-2.379723 -11.4382,1.438007 -12.17223,14.278053 -0.47226,8.26113 -2.10623,-4.847109 -4.8616,6.85563 -1.63315,6.93641 1.85723,9.2457 3.70463,13.05507 2.34774,4.84113 5.42933,9.69845 19.00362,13.03516 15.55667,3.824 35.65356,5.33472 47.91558,9.40611 19.09172,6.33907 28.6761,15.35131 28.66151,18.26854"
     style="-moz-animation:dash 20s linear forwards infinite;-o-animation:dash 20s linear forwards infinite;-webkit-animation:dash 20s linear forwards infinite"
     sodipodi:nodetypes="ccsccsccsscscsccsssssscccsssssc" />
     <path d="M 0,0 C -0.651,-0.471 0.99,-1.583 1.565,-2.806 2.14,-4.03 4.429,-3.378 4.595,-2.978 4.76,-2.575 4.885,-0.96 4.153,-0.235 3.418,0.49 3.316,0.805 2.907,0.842 2.154,0.914 0.338,0.245 0,0" class="bg0" transform="matrix(0.79351933,0,0,-0.79356073,427.89214,114.01302)"/>
     <path d="m 0,0 c 0.036,0.458 -1.055,0.151 -1.801,0.353 -0.745,0.201 -1.307,-1.038 -1.193,-1.259 0.115,-0.219 0.772,-0.87 1.359,-0.819 0.587,0.054 0.762,-0.019 0.93,0.146 C -0.396,-1.276 -0.018,-0.239 0,0" class="bg0" transform="matrix(0.79351933,0,0,-0.79356073,428.50924,115.71751)"/>
     <path d="m 0,0 c -1.14,0.27 -0.8,-2.604 -1.602,-4.408 -0.801,-1.803 2.103,-3.707 2.704,-3.506 0.601,0.201 2.504,1.603 2.603,3.106 0.1,1.503 0.35,1.914 0,2.405 C 3.065,-1.506 0.593,-0.14 0,0" class="bg0" transform="matrix(0.78411563,0,0,-0.78411563,457.16563,137.54686)"/>
     <path d="m 0,0 c -0.173,0.143 -0.121,-1.387 -0.243,-2.348 -0.121,-0.96 0.32,-1.974 0.41,-1.866 0.093,0.107 0.383,0.854 0.396,1.654 0.016,0.799 0.055,1.019 0,1.28 C 0.466,-0.802 0.091,-0.074 0,0" class="bg0" transform="matrix(0.78411563,0,0,-0.78411563,480.10294,131.54914)"/>
     <path d="M 0,0 C -0.234,-1.147 2.627,-0.723 4.453,-1.472 6.278,-2.221 8.096,0.739 7.878,1.334 7.658,1.929 6.201,3.789 4.696,3.847 3.191,3.902 2.773,4.138 2.294,3.775 1.416,3.109 0.122,0.598 0,0" class="bg0" transform="matrix(0.78411563,0,0,-0.78411563,474.80799,129.88575)"/>
     <path d="M 0,0 C 0,0 1.517,2.789 2.281,2.343 3.05,1.899 1.384,-0.859 1.384,-0.859 l 1.75,-4.9 -0.383,-0.994 -2.375,4.268 -2.074,-2.95 0.346,-1.73 -0.171,-0.363 -1.222,1.16 -1.662,0.512 0.233,0.331 1.773,0.499 1.435,3.321 -4.769,0.172 0.556,0.596 z" class= "blue" transform="matrix(0.93866276,0,0,-0.93866276,490.36987,141.24644)"/>
    </g>
   </g>
   
  <circle class="bg3" cx="321.63153" cy="236.76401" r="4.6201568" />
  <g><text class="ff1 fs75 fw1 white" transform="matrix(1.0102 0 0 1 318.8874271 239.12924)">1</text></g> 
  <circle class="bg2" cx="289.03247" cy="250.62076" r="5.5441885" />
  <g><text class="ff1 fs80 fw1 blue" transform="matrix(1.0102 0 0 1 285.773 253.004)">1</text></g> 
  <circle class="bg2" cx="360.18097" cy="97.585884" r="5.5441885" />
  <g><text class="ff1 fs80 fw1 blue" transform="matrix(1.0102 0 0 1 356.927 100.50)">2</text></g> 
  <circle class="bg2" cx="247.74925" cy="187.77119" r="5.5441885" />
  <g><text class="ff1 fs80 fw1 blue" transform="matrix(1.0102 0 0 1 244.495 191.110)">3</text></g> 
  <circle class="bg2" cx="241.89072" cy="235.71779" r="4.6201568" />
  <g><text class="ff1 fs80 fw1 blue" transform="matrix(1.0102 0 0 1 239.1820887 238.23607)">3</text></g> 
  <circle class="bg2" cx="321.09625" cy="294.42255" r="5.5441885" />
  <g><text class="ff1 fs80 fw1 blue" transform="matrix(1.0102 0 0 1 317.3876231 297.30626)">4</text></g> 
  <circle class="bg2" cx="283.17456" cy="270.31076" r="5.5441885" />
  <g><text class="ff1 fs80 fw1 blue" transform="matrix(1.0102 0 0 1 279.4659411 273.19447)">4</text></g> 
  <circle class="bg2" cx="158.80196" cy="274.0618" r="5.5441885" />
  <g><text class="ff1 fs80 fw1 blue" transform="matrix(1.0102 0 0 1 155.5484931 276.9455)">5</text></g> 
  <circle class="bg2" cx="138.16069" cy="228.58162" r="5.5441885" />
  <g><text class="ff1 fs80 fw1 blue" transform="matrix(1.0102 0 0 1 134.9116871 231.24785)">5</text></g> 
  <circle class="bg2" cx="116.2932" cy="211.64987" r="5.5441885" />
  <g><text class="ff1 fs80 fw1 blue" transform="matrix(1.0102 0 0 1 113.0441971 214.31609)">6</text></g> 
  <circle class="bg2" cx="89.958397" cy="200.97372" r="5.5441885" />  
  <g><text class="ff1 fs80 fw1 blue" transform="matrix(1.0102 0 0 1 86.7093971 203.63995)">6</text></g> 
  <circle class="bg2" cx="210.63179" cy="192.63179" r="5.5441885" />
  <g><text class="ff1 fs80 fw1 blue" transform="matrix(1.0102 0 0 1 207.8388471 196.21015)">7</text></g> 
  <circle class="bg2" cx="221.61661" cy="179.25055" r="5.5441885" />  
  <g><text class="ff1 fs80 fw1 blue" transform="matrix(1.0102 0 0 1 218.8236791 182.82891)">7</text></g> 
  <circle class="bg2" cx="206.45607" cy="208.45607" r="5.5441885" />
  <g><text class="ff1 fs80 fw1 blue" transform="matrix(1.0102 0 0 1 203.6631311 211.57836)">7</text></g> 
  <circle class="bg3" cx="301.15308" cy="252.35315" r="4.6201568" />
  <g><text class="ff1 fs75 fw1 white" transform="matrix(1.0102 0 0 1 298.4089851 254.71837)">8</text></g> 
  </g>
 </g>
 </svg>